<svg width="96" height="96" xmlns="http://www.w3.org/2000/svg" xmlns:xlink="http://www.w3.org/1999/xlink" overflow="hidden"><g><path d="M0 0 96 0 96 96 0 96Z" fill="#FFFFFF" fill-rule="evenodd" fill-opacity="0"/><path d="M10 34 17 34 17 38 10 38Z" fill="#C04F15"/><path d="M10 26 17 26 17 30 10 30Z" fill="#C04F15"/><path d="M10 42 17 42 17 46 10 46Z" fill="#C04F15"/><path d="M10 66 17 66 17 70 10 70Z" fill="#C04F15"/><path d="M10 58 17 58 17 62 10 62Z" fill="#C04F15"/><path d="M10 50 17 50 17 54 10 54Z" fill="#C04F15"/><path d="M79 58 86 58 86 62 79 62Z" fill="#C04F15"/><path d="M79 66 86 66 86 70 79 70Z" fill="#C04F15"/><path d="M79 50 86 50 86 54 79 54Z" fill="#C04F15"/><path d="M79 26 86 26 86 30 79 30Z" fill="#C04F15"/><path d="M79 42 86 42 86 46 79 46Z" fill="#C04F15"/><path d="M79 34 86 34 86 38 79 38Z" fill="#C04F15"/><path d="M50 10 54 10 54 17 50 17Z" fill="#C04F15"/><path d="M66 10 70 10 70 17 66 17Z" fill="#C04F15"/><path d="M58 10 62 10 62 17 58 17Z" fill="#C04F15"/><path d="M42 10 46 10 46 17 42 17Z" fill="#C04F15"/><path d="M26 10 30 10 30 17 26 17Z" fill="#C04F15"/><path d="M34 10 38 10 38 17 34 17Z" fill="#C04F15"/><path d="M34 79 38 79 38 86 34 86Z" fill="#C04F15"/><path d="M26 79 30 79 30 86 26 86Z" fill="#C04F15"/><path d="M42 79 46 79 46 86 42 86Z" fill="#C04F15"/><path d="M50 79 54 79 54 86 50 86Z" fill="#C04F15"/><path d="M58 79 62 79 62 86 58 86Z" fill="#C04F15"/><path d="M66 79 70 79 70 86 66 86Z" fill="#C04F15"/><path d="M35 35 61 35 61 61 35 61Z" fill="#C04F15"/><path d="M71 21 25 21C22.7909 21 21 22.7909 21 25L21 71C21 73.2091 22.7909 75 25 75L71 75C73.2091 75 75 73.2091 75 71L75 25C75 22.7909 73.2091 21 71 21ZM65 65 31 65 31 31 65 31Z" fill="#C04F15"/><path d="M20 25.2503C20 22.9029 21.9029 21 24.2503 21L71.7496 21C74.0971 21 76 22.9029 76 25.2503L76 70.7497C76 73.0971 74.0971 75 71.7496 75L24.2503 75C21.9029 75 20 73.0971 20 70.7497Z" fill="#C04F15" fill-rule="evenodd"/><g><g><g><path d="M57.5675 36.6042C56.3842 36.3171 55.1348 36.541 54.125 37.2212 52.0083 38.6446 51.2533 41.7425 51.0267 43.0083 50.9087 43.6667 50.8446 44.8058 50.7704 46.125 50.655 48.1738 50.5112 50.7237 50.1287 52 49.8337 52.9842 49.4467 53.9479 49.0362 54.9679 48.4973 56.2442 48.0304 57.5497 47.6379 58.8783 46.8207 61.5974 48.3626 64.4641 51.0816 65.2812 52.39 65.6744 53.8011 65.5307 55.0033 64.8817 56.186 64.2531 57.0617 63.1699 57.4283 61.8817L57.4283 61.8817C57.8838 60.2846 59.4804 55.0067 60.0117 53.7408 60.2844 53.2032 60.5959 52.6861 60.9437 52.1937 61.8638 50.7979 63.1237 48.8858 63.5171 46.7733 64.1617 43.3254 61.9458 37.5354 57.5675 36.6042ZM56.6462 43.0367 56.41 43.2033C55.2796 43.9817 53.1142 45.6746 52.5196 47.5729 51.7279 50.0962 52.5408 52.9987 52.5488 53.0275 52.6405 53.3603 52.4452 53.7044 52.1124 53.7962 51.7848 53.8865 51.445 53.6985 51.3475 53.3729 51.3092 53.24 50.4221 50.0875 51.3262 47.1996 52.1304 44.6325 55.0921 42.5521 56.1212 41.8917L56.285 41.0017C56.3474 40.6621 56.6732 40.4374 57.0127 40.4998 57.3522 40.5622 57.577 40.888 57.5146 41.2275L57.3825 41.9467C58.0754 42.8217 61.72 47.6721 60.5471 51.4167 59.5713 54.5304 58.3296 55.4617 58.1912 55.5575 57.9044 55.7495 57.5162 55.6725 57.3242 55.3856 57.1388 55.1084 57.2037 54.7344 57.4717 54.5358 57.5062 54.5092 58.52 53.7054 59.3542 51.0429 60.2008 48.3404 57.8125 44.65 56.7729 43.2167Z" fill="#262626"/><path d="M45.3958 38.1792C45.4512 36.8942 45.39 33.7062 43.6354 31.855 42.7987 30.9703 41.6283 30.4785 40.4108 30.5L40.3504 30.5C35.9046 30.5 32.5079 35.6358 32.3825 39.125 32.305 41.2742 33.1167 43.4167 33.7083 44.9779 33.9406 45.5345 34.1318 46.1072 34.2804 46.6917 34.5254 48.0429 34.9308 53.5433 35.0262 55.2008L35.0262 55.2008C35.1036 56.5376 35.7217 57.7852 36.7383 58.6567 37.682 59.4714 38.887 59.9202 40.1338 59.9212 40.275 59.9212 40.4171 59.915 40.5583 59.9033 43.3531 59.6475 45.4314 57.2055 45.2371 54.4058 45.1444 53.024 44.9741 51.6485 44.7271 50.2858 44.5496 49.2025 44.3817 48.175 44.3104 47.15 44.2154 45.8204 44.6321 43.3 44.9671 41.275 45.1808 39.9721 45.3671 38.8471 45.3958 38.1792ZM39.7379 37.1321C38.4046 38.3083 35.2796 41.3879 35.515 44.2008 35.7504 47.0137 36.5821 48.0121 36.5904 48.0217 36.8187 48.2806 36.7939 48.6755 36.535 48.9038 36.4198 49.0053 36.2714 49.0609 36.1179 49.06 35.9454 49.0602 35.7808 48.9879 35.6642 48.8608 35.55 48.7358 34.5413 47.5571 34.2692 44.305 33.9425 40.395 38.5575 36.4583 39.425 35.7546L39.4529 35.0242C39.47 34.6809 39.7581 34.4141 40.1017 34.4233 40.4466 34.4367 40.7154 34.727 40.7021 35.072 40.7021 35.072 40.7021 35.072 40.7021 35.0721L40.6675 35.9762C41.5279 36.845 43.9637 39.5221 44.1883 42.2029 44.4404 45.2183 42.8867 48.1012 42.82 48.2225 42.6444 48.5197 42.2612 48.6183 41.964 48.4427 41.6814 48.2757 41.5761 47.9186 41.7229 47.625 41.7375 47.5987 43.1629 44.9433 42.9421 42.3088 42.7754 40.3254 41.0321 38.2 40.0988 37.1942L39.9075 36.9858Z" fill="#262626"/></g></g></g><path d="M25.5001 29.8846C25.5001 28.0154 27.0154 26.5001 28.8846 26.5001L67.1155 26.5001C68.9847 26.5001 70.5001 28.0154 70.5001 29.8846L70.5001 66.1155C70.5001 67.9847 68.9847 69.5001 67.1155 69.5001L28.8846 69.5001C27.0154 69.5001 25.5001 67.9847 25.5001 66.1155Z" stroke="#FFFFFF" stroke-width="3" stroke-miterlimit="8" fill="none" fill-rule="evenodd"/></g></svg>