<svg width="96" height="96" xmlns="http://www.w3.org/2000/svg" xmlns:xlink="http://www.w3.org/1999/xlink" overflow="hidden"><defs><clipPath id="clip0"><path d="M47.6064 25.672 75.3839 45.5965 55.4594 73.3739 27.6819 53.4494Z" fill-rule="evenodd" clip-rule="evenodd"/></clipPath><clipPath id="clip1"><path d="M47.6064 25.672 75.3839 45.5965 55.4594 73.3739 27.6819 53.4494Z" fill-rule="evenodd" clip-rule="evenodd"/></clipPath><clipPath id="clip2"><path d="M47.6064 25.672 75.3839 45.5965 55.4594 73.3739 27.6819 53.4494Z" fill-rule="evenodd" clip-rule="evenodd"/></clipPath></defs><g><path d="M0 0 96 0 96 96 0 96Z" fill="#FFFFFF" fill-rule="evenodd" fill-opacity="0"/><path d="M10 34 17 34 17 38 10 38Z" fill="#C04F15"/><path d="M10 26 17 26 17 30 10 30Z" fill="#C04F15"/><path d="M10 42 17 42 17 46 10 46Z" fill="#C04F15"/><path d="M10 66 17 66 17 70 10 70Z" fill="#C04F15"/><path d="M10 58 17 58 17 62 10 62Z" fill="#C04F15"/><path d="M10 50 17 50 17 54 10 54Z" fill="#C04F15"/><path d="M79 58 86 58 86 62 79 62Z" fill="#C04F15"/><path d="M79 66 86 66 86 70 79 70Z" fill="#C04F15"/><path d="M79 50 86 50 86 54 79 54Z" fill="#C04F15"/><path d="M79 26 86 26 86 30 79 30Z" fill="#C04F15"/><path d="M79 42 86 42 86 46 79 46Z" fill="#C04F15"/><path d="M79 34 86 34 86 38 79 38Z" fill="#C04F15"/><path d="M50 10 54 10 54 17 50 17Z" fill="#C04F15"/><path d="M66 10 70 10 70 17 66 17Z" fill="#C04F15"/><path d="M58 10 62 10 62 17 58 17Z" fill="#C04F15"/><path d="M42 10 46 10 46 17 42 17Z" fill="#C04F15"/><path d="M26 10 30 10 30 17 26 17Z" fill="#C04F15"/><path d="M34 10 38 10 38 17 34 17Z" fill="#C04F15"/><path d="M34 79 38 79 38 86 34 86Z" fill="#C04F15"/><path d="M26 79 30 79 30 86 26 86Z" fill="#C04F15"/><path d="M42 79 46 79 46 86 42 86Z" fill="#C04F15"/><path d="M50 79 54 79 54 86 50 86Z" fill="#C04F15"/><path d="M58 79 62 79 62 86 58 86Z" fill="#C04F15"/><path d="M66 79 70 79 70 86 66 86Z" fill="#C04F15"/><path d="M35 35 61 35 61 61 35 61Z" fill="#C04F15"/><path d="M71 21 25 21C22.7909 21 21 22.7909 21 25L21 71C21 73.2091 22.7909 75 25 75L71 75C73.2091 75 75 73.2091 75 71L75 25C75 22.7909 73.2091 21 71 21ZM65 65 31 65 31 31 65 31Z" fill="#C04F15"/><path d="M20 25.2503C20 22.9029 21.9029 21 24.2503 21L71.7496 21C74.0971 21 76 22.9029 76 25.2503L76 70.7497C76 73.0971 74.0971 75 71.7496 75L24.2503 75C21.9029 75 20 73.0971 20 70.7497Z" fill="#C04F15" fill-rule="evenodd"/><g clip-path="url(#clip0)"><g clip-path="url(#clip1)"><g clip-path="url(#clip2)"><path d="M25.4602 8.19C24.57 8.19 23.8578 8.90218 23.8578 9.75679 23.8578 9.75679 23.8578 9.75679 23.8578 9.75679L23.8578 16.7361C23.8578 16.9497 23.7154 17.0922 23.5017 17.0922 23.2881 17.0922 23.1457 16.9497 23.1457 16.7361L23.1457 6.30274C23.1457 5.44813 22.5403 4.73596 21.6857 4.62913 20.7243 4.52231 19.9409 5.27009 19.9409 6.23152L19.9409 16.7361C19.9409 16.9497 19.7984 17.0922 19.5848 17.0922 19.3711 17.0922 19.2287 16.9497 19.2287 16.7361L19.2287 4.05939 19.2287 4.05939C19.1931 3.16917 18.4453 2.49261 17.5907 2.52822 16.7361 2.52822 16.0595 3.20478 16.0239 4.05939L16.0239 4.05939 16.0239 16.7361C16.0239 16.9497 15.8815 17.0922 15.6678 17.0922 15.4542 17.0922 15.3117 16.9497 15.3117 16.7361L15.3117 6.23152C15.2761 5.34131 14.5284 4.66474 13.6737 4.70035 12.8191 4.73596 12.1426 5.41252 12.1426 6.23152L12.1426 20.5106C12.1426 20.5462 12.0714 20.5462 12.0714 20.5106L10.647 14.2435C10.4334 13.282 9.47192 12.6767 8.51048 12.8904 7.54905 13.104 6.9437 14.0654 7.15735 15.0269L9.29387 24.6412C9.4007 25.0329 9.64996 25.389 9.97044 25.6383L13.8874 28.665 13.8874 31.3357 24.2139 31.3357 24.2139 29.5552C24.2139 27.027 27.0626 26.849 27.0626 22.0774L27.0626 9.79239C27.0626 8.90218 26.3504 8.19 25.4602 8.19 25.4602 8.19 25.4602 8.19 25.4602 8.19L25.4602 8.19Z" fill="#262626" transform="matrix(0.812579 0.582856 -0.582854 0.812577 47.6064 25.672)"/></g></g></g><path d="M41.5425 44.3169 35.8317 42.1289" stroke="#262626" stroke-width="2" stroke-miterlimit="8" fill="none" fill-rule="evenodd"/><path d="M49.1577 38.6385 51.1147 30.9635" stroke="#262626" stroke-width="2" stroke-miterlimit="8" fill="none" fill-rule="evenodd"/><path d="M43 41 40 38" stroke="#262626" stroke-width="2" stroke-miterlimit="8" fill="none" fill-rule="evenodd"/><path d="M46 39C45.6667 37.3333 45.4375 34.9752 45 34" stroke="#262626" stroke-width="2" stroke-miterlimit="8" fill="none" fill-rule="evenodd"/><path d="M33 58C33.9945 59.2614 34.9891 60.5229 36.1557 60.8833 37.3224 61.2437 38.6612 60.7031 40 60.1625" stroke="#262626" stroke-width="2" stroke-miterlimit="8" fill="none" fill-rule="evenodd"/><path d="M32 60C33.5717 61.8116 35.1435 63.6233 36.8101 63.9456 38.4768 64.268 40.2384 63.1011 42 61.9341" stroke="#262626" stroke-width="2" stroke-miterlimit="8" fill="none" fill-rule="evenodd"/><path d="M25.5001 29.8846C25.5001 28.0154 27.0154 26.5001 28.8846 26.5001L67.1155 26.5001C68.9847 26.5001 70.5001 28.0154 70.5001 29.8846L70.5001 66.1155C70.5001 67.9847 68.9847 69.5001 67.1155 69.5001L28.8846 69.5001C27.0154 69.5001 25.5001 67.9847 25.5001 66.1155Z" stroke="#FFFFFF" stroke-width="3" stroke-miterlimit="8" fill="none" fill-rule="evenodd"/></g></svg>